<!-- Favicon derived from logo.svg -->
<svg width="36" height="36" viewBox="0 0 35 36" fill="none" xmlns="http://www.w3.org/2000/svg">
    <path
        d="M16.8658 0.500122C15.8031 0.538288 14.7462 0.673219 13.708 0.903241L15.977 9.37639C16.2712 9.32459 16.5678 9.28789 16.8658 9.26643V0.500122ZM18.2837 0.509347V9.28229C18.5793 9.30908 18.8734 9.35089 19.1648 9.40757L21.4331 0.940508C20.3986 0.701546 19.3444 0.557231 18.2837 0.509347ZM12.337 1.26891C11.3195 1.58268 10.3327 1.98865 9.389 2.48177L13.7732 10.0774C14.0447 9.94977 14.3226 9.83622 14.6058 9.73716L12.337 1.26891ZM22.8 1.31503L20.5305 9.79011C20.8067 9.89234 21.0776 10.0084 21.3421 10.138L25.7236 2.54689C24.7884 2.04861 23.8098 1.6363 22.8 1.31503ZM8.1596 3.18865C7.25841 3.75684 6.41095 4.40612 5.62778 5.12842L11.827 11.3293C12.0559 11.1348 12.2947 10.9521 12.5423 10.7821L8.1596 3.18865ZM26.9469 3.26337L22.5609 10.8625C22.799 11.0315 23.0284 11.2124 23.2484 11.4043L29.4447 5.20637C28.6725 4.48461 27.8364 3.83429 26.9469 3.26337ZM4.62478 6.13151C3.90253 6.91502 3.25331 7.76284 2.68519 8.66442L10.2767 13.0485C10.4467 12.8006 10.6294 12.5615 10.824 12.3323L4.62478 6.13151ZM30.4407 6.21546L24.9511 11.7071C25.1596 11.7274 25.363 11.8156 25.5238 11.9739C25.5814 12.0301 25.6289 12.0931 25.6689 12.159L28.6107 11.3351C28.6024 10.9097 28.8824 10.5169 29.3116 10.4026C29.4222 10.3731 29.5334 10.3657 29.6411 10.3759L30.7357 7.48284C30.392 7.24032 30.2405 6.7884 30.3962 6.3768C30.4146 6.32791 30.4368 6.28252 30.4619 6.23898C30.4548 6.23129 30.4477 6.2236 30.4406 6.21592L30.4407 6.21546ZM31.5795 7.60396C31.4519 7.64639 31.3155 7.66484 31.1777 7.65008L30.0858 10.5355C30.2671 10.6588 30.407 10.8448 30.4678 11.0732C30.5392 11.3417 30.4866 11.6136 30.3464 11.83C31.2365 12.638 32.376 13.2142 33.657 13.6662C33.8147 13.4299 34.0692 13.2814 34.3435 13.2519C33.7705 11.2178 32.834 9.30435 31.5795 7.60396ZM1.97792 9.89426C1.48502 10.8382 1.07924 11.8251 0.765618 12.8427L9.23196 15.1121C9.33092 14.8287 9.44438 14.5506 9.5719 14.2789L1.97792 9.89426ZM28.738 11.7904L25.8044 12.6117C25.8109 12.7873 25.7689 12.964 25.6782 13.1208L28.208 15.61C28.3302 15.5389 28.4693 15.4947 28.6166 15.4844L29.1573 12.1737C28.984 12.0934 28.8366 11.9604 28.738 11.7904ZM30.0277 12.1339C29.9571 12.1745 29.8805 12.2077 29.7979 12.2299C29.7395 12.2455 29.6809 12.2548 29.6228 12.2585L29.0818 15.5699C29.2316 15.64 29.3595 15.7467 29.4535 15.879L33.5034 14.2911C33.497 14.2312 33.4961 14.1706 33.5006 14.1098C32.1754 13.6364 30.9806 13.0141 30.0271 12.1334L30.0277 12.1339ZM25.347 13.4577C25.2525 13.5149 25.1499 13.552 25.0446 13.573C25.8319 14.9159 26.2469 16.4445 26.2469 18.0013C26.2469 19.0546 26.0567 20.0993 25.6857 21.0851L28.028 17.1075C27.8313 16.9177 27.7176 16.645 27.7411 16.3514C27.7531 16.2018 27.8001 16.0636 27.8722 15.943L25.347 13.4577ZM0.402951 14.2142C0.172995 15.2527 0.0381196 16.31 0 17.373H8.76404C8.78547 17.0749 8.82215 16.7781 8.87393 16.4838L0.402951 14.2142ZM33.67 14.7343L29.6221 16.3211C29.6285 16.3801 29.6303 16.4405 29.6257 16.5019C29.6034 16.7826 29.4596 17.0241 29.2509 17.1812L30.3362 19.9573C30.4218 19.9481 30.51 19.9481 30.599 19.9665C30.6778 19.9803 30.7518 20.0052 30.8217 20.0366C32.0634 18.4946 33.0551 16.7809 33.8688 14.9411C33.7914 14.882 33.7248 14.8119 33.6702 14.734L33.67 14.7343ZM34.755 15.0826C34.613 15.1324 34.4588 15.149 34.3052 15.1259C33.4823 17.0043 32.488 18.7759 31.2119 20.3644C31.2843 20.4704 31.3347 20.5912 31.3594 20.7195L33.4333 20.8465C33.5632 20.4464 33.95 20.1679 34.3892 20.1948C34.5566 20.205 34.7111 20.2585 34.8427 20.3436C34.9475 19.5673 35 18.7848 35 18.0014C35 17.0234 34.918 16.0469 34.755 15.0826ZM28.4405 17.3395L25.4232 22.4626C25.4565 22.4958 25.4879 22.5309 25.5155 22.5684L29.4948 21.0191C29.4825 20.9255 29.4841 20.8283 29.5013 20.7304C29.5472 20.4733 29.6933 20.2595 29.892 20.1212L28.8135 17.3623C28.7466 17.3715 28.6778 17.3752 28.6077 17.3715C28.5499 17.3623 28.4942 17.3558 28.4401 17.342L28.4405 17.3395ZM0.00658529 18.791C0.0544425 19.8521 0.19872 20.9066 0.437635 21.9415L8.9025 19.6721C8.84584 19.3807 8.80403 19.0866 8.77723 18.791H0.00658529ZM9.28496 21.0384L0.812274 23.3088C1.13342 24.3187 1.54556 25.2973 2.04362 26.2326L9.63247 21.8502C9.50306 21.5856 9.38707 21.3147 9.28496 21.0384ZM31.3294 21.1909C31.2797 21.3435 31.1933 21.4762 31.082 21.5817C32.0742 23.701 32.0589 25.9648 31.5487 28.2709C31.5779 28.2875 31.606 28.306 31.6335 28.3254C33.0019 26.4503 33.9839 24.3218 34.5223 22.0636C34.4423 22.0802 34.3591 22.0876 34.2737 22.0821C33.8345 22.0553 33.4845 21.7314 33.4045 21.3182L31.3294 21.1909ZM29.6719 21.4571L25.6916 23.0071C25.706 23.1155 25.7022 23.2268 25.6779 23.3359L27.9589 24.5597C28.0578 24.4554 28.1815 24.3714 28.3262 24.3199C28.4803 24.2646 28.6392 24.2526 28.7902 24.2765L29.8779 21.6617C29.7987 21.6045 29.7293 21.5352 29.6719 21.4571ZM30.6678 21.8118C30.5565 21.8404 30.4386 21.8487 30.3186 21.8339L29.2245 24.4658C29.3615 24.5726 29.4711 24.7175 29.5336 24.8931C29.6549 25.2337 29.5689 25.5978 29.3412 25.8478L30.8058 28.1956C30.8996 28.166 30.9959 28.1513 31.0918 28.1522C31.583 25.9298 31.5929 23.8041 30.6678 21.8118ZM10.3571 23.0691L2.76016 27.4565C3.33093 28.3463 3.98109 29.1825 4.70267 29.955L10.899 23.7573C10.707 23.5371 10.5261 23.3074 10.3571 23.0691ZM25.4635 23.7568C25.2337 24.0172 24.8789 24.1276 24.5455 24.0516L30.3635 29.8714C30.39 29.8426 30.4163 29.8137 30.4426 29.7847C30.3843 29.7303 30.3316 29.6678 30.2873 29.5969C30.0544 29.2236 30.1148 28.751 30.4045 28.446L28.9443 26.1058C28.4571 26.2699 27.926 26.0136 27.7528 25.5276C27.6867 25.3419 27.6826 25.1493 27.7292 24.9719L25.4635 23.7568ZM23.1617 24.6731C22.9477 24.855 22.725 25.0264 22.4945 25.1868L26.8787 32.7825C27.7615 32.2219 28.5924 31.5832 29.3612 30.8742L23.1617 24.6731ZM11.9147 24.7469L5.71178 30.9514C6.49147 31.6609 7.33362 32.2986 8.22798 32.8565L12.6093 25.2657C12.3693 25.1044 12.1375 24.9312 11.9147 24.7469ZM21.2695 25.8999C21.0154 26.0213 20.7556 26.1304 20.4909 26.2267L22.7602 34.7002C23.7584 34.3852 24.7263 33.9813 25.6523 33.4934L21.2695 25.8999ZM13.8465 25.9599L9.46054 33.5588C10.395 34.0416 11.3712 34.4391 12.377 34.7467L14.6456 26.2799C14.3741 26.1864 14.1074 26.0796 13.8465 25.9599ZM19.1236 26.6033C18.8457 26.656 18.5654 26.6952 18.2837 26.7208V35.4937C19.3305 35.4463 20.3708 35.305 21.3923 35.0715L19.1236 26.6033ZM16.0183 26.631L13.7488 35.1059C14.7739 35.3304 15.8171 35.4622 16.8658 35.4998V26.7335C16.5818 26.7132 16.299 26.6789 16.0183 26.631Z"
        fill="url(#g)" />
    <defs>
        <linearGradient id="g" x1="2" y1="0" x2="35" y2="0" gradientUnits="userSpaceOnUse">
            <stop stop-color="#00D4AA" />
            <stop offset="1" stop-color="#00CCFF" />
        </linearGradient>
    </defs>
</svg>