<svg width="466" height="80" viewBox="0 0 466 80" fill="none" xmlns="http://www.w3.org/2000/svg">
    <mask id="mask0_158_6" style="mask-type:luminance" maskUnits="userSpaceOnUse" x="0" y="0" width="77" height="77">
        <path
            d="M37.1048 0C34.7668 0.0839652 32.4416 0.380813 30.1576 0.886862L35.1494 19.5278C35.7966 19.4138 36.4492 19.3331 37.1048 19.2859V0ZM40.2241 0.020295V19.3208C40.8745 19.3797 41.5215 19.4717 42.1626 19.5964L47.1528 0.968849C44.8769 0.443133 42.5577 0.12564 40.2241 0.020295ZM27.1414 1.69133C24.9029 2.38163 22.7319 3.27476 20.6558 4.35963L30.301 21.07C30.8983 20.7892 31.5097 20.5394 32.1328 20.3215L27.1414 1.69133ZM50.16 1.7928L45.1671 20.438C45.7747 20.6629 46.3707 20.9182 46.9526 21.2033L56.5919 4.50289C54.5345 3.40667 52.3816 2.49959 50.16 1.7928ZM17.9511 5.91476C15.9685 7.16478 14.1041 8.5932 12.3811 10.1823L26.0194 23.8242C26.523 23.3963 27.0483 22.9944 27.5931 22.6204L17.9511 5.91476ZM59.2832 6.07915L49.634 22.7972C50.1578 23.169 50.6625 23.567 51.1465 23.9892L64.7783 10.3537C63.0795 8.76587 61.2401 7.33517 59.2832 6.07915ZM10.1745 12.3891C8.58557 14.1128 7.15728 15.978 5.90742 17.9615L22.6087 27.6064C22.9827 27.0611 23.3847 26.535 23.8128 26.0308L10.1745 12.3891ZM66.9695 12.5737L54.8924 24.6554C55.3511 24.7 55.7986 24.8941 56.1524 25.2423C56.2791 25.366 56.3836 25.5046 56.4716 25.6495L62.9435 23.837C62.9253 22.9011 63.5413 22.0369 64.4855 21.7855C64.7288 21.7206 64.9735 21.7043 65.2104 21.7267L67.6185 15.362C66.8624 14.8284 66.5291 13.8342 66.8716 12.9287C66.9121 12.8211 66.961 12.7213 67.0162 12.6255C67.0006 12.6086 66.9852 12.5906 66.9695 12.5737ZM69.4749 15.6284C69.1942 15.7218 68.8941 15.7624 68.5909 15.7299L66.1888 22.0778C66.5876 22.3491 66.8954 22.7583 67.0292 23.2608C67.1862 23.8515 67.0705 24.4497 66.7621 24.9257C68.7203 26.7033 71.2272 27.971 74.0454 28.9654C74.3923 28.4455 74.9522 28.1188 75.5557 28.0539C74.2951 23.5789 72.2348 19.3693 69.4749 15.6284ZM4.35142 20.6671C3.26704 22.7438 2.37433 24.915 1.68436 27.1537L20.3103 32.1464C20.528 31.5229 20.7776 30.9111 21.0582 30.3133L4.35142 20.6671ZM63.2236 24.8386L56.7697 26.6455C56.784 27.0318 56.6916 27.4205 56.492 27.7655L62.0576 33.2417C62.3264 33.0853 62.6325 32.9881 62.9565 32.9654L64.1461 25.6819C63.7648 25.5052 63.4405 25.2126 63.2236 24.8386ZM66.0609 25.5943C65.9056 25.6836 65.7371 25.7567 65.5554 25.8055C65.4269 25.8398 65.298 25.8603 65.1702 25.8684L63.98 33.1535C64.3095 33.3077 64.5909 33.5425 64.7977 33.8335L73.7075 30.3402C73.6934 30.2084 73.6914 30.0751 73.7013 29.9413C70.7859 28.8998 68.1586 27.5319 66.0609 25.5943ZM55.7634 28.5067C55.5555 28.6325 55.3298 28.7141 55.0981 28.7603C56.8302 31.7147 57.7432 35.0776 57.7432 38.5026C57.7432 40.8199 57.3247 43.1182 56.5085 45.287L61.6616 36.5362C61.2289 36.1187 60.9787 35.5187 61.0304 34.8728C61.0568 34.5437 61.1602 34.2397 61.3188 33.9743L55.7634 28.5067ZM0.886492 30.171C0.380589 32.4557 0.0838631 34.7817 0 37.1203H19.2809C19.328 36.4645 19.4087 35.8116 19.5226 35.1641L0.886492 30.171ZM74.074 31.3152L65.1686 34.8062C65.1827 34.936 65.1867 35.0688 65.1765 35.2039C65.1275 35.8215 64.8111 36.3528 64.352 36.6984L66.7396 42.8058C66.928 42.7856 67.122 42.7856 67.3178 42.826C67.4912 42.8564 67.654 42.9112 67.8077 42.9803C70.5395 39.5879 72.7212 35.8177 74.5114 31.7702C74.3411 31.6401 74.1941 31.4866 74.074 31.3152ZM76.461 32.0815C76.1486 32.191 75.8094 32.2275 75.4714 32.1767C73.6611 36.3092 71.4736 40.2067 68.6662 43.7014C68.8255 43.9346 68.9363 44.2004 68.9907 44.4826L73.5533 44.762C73.839 43.8818 74.69 43.2691 75.6562 43.3283C76.0245 43.3507 76.3644 43.4684 76.6539 43.6557C76.8845 41.9478 77 40.2263 77 38.5028C77 36.3512 76.8196 34.2029 76.461 32.0815ZM62.5691 37.0466L55.931 48.3175C56.0043 48.3905 56.0734 48.4677 56.1341 48.5502L64.8886 45.1418C64.8615 44.9358 64.865 44.722 64.9029 44.5066C65.0038 43.941 65.3253 43.4706 65.7624 43.1664L63.3897 37.0968C63.2425 37.117 63.0912 37.1252 62.9369 37.117C62.8098 37.0968 62.6872 37.0825 62.5682 37.0521L62.5691 37.0466ZM0.0144876 40.2399C0.119774 42.5744 0.437184 44.8943 0.962797 47.171L19.5855 42.1784C19.4608 41.5373 19.3689 40.8903 19.3099 40.2399H0.0144876ZM20.4269 45.1842L1.787 50.1791C2.49352 52.4009 3.40023 54.5538 4.49596 56.6115L21.1914 46.9702C20.9067 46.3881 20.6516 45.7921 20.4269 45.1842ZM68.9247 45.5197C68.8153 45.8554 68.6253 46.1474 68.3804 46.3795C70.5632 51.0419 70.5296 56.0223 69.4071 61.0957C69.4714 61.1322 69.5332 61.1729 69.5937 61.2156C72.6042 57.0904 74.7646 52.4077 75.9491 47.4397C75.7731 47.4762 75.59 47.4925 75.4021 47.4804C74.4359 47.4214 73.6659 46.7088 73.4899 45.7998L68.9247 45.5197ZM65.2782 46.1054L56.5215 49.5154C56.5532 49.7538 56.5448 49.9987 56.4914 50.2387L61.5096 52.9311C61.7272 52.7016 61.9993 52.5168 62.3176 52.4035C62.6567 52.2819 63.0062 52.2555 63.3384 52.308L65.7314 46.5555C65.5571 46.4296 65.4045 46.2772 65.2782 46.1054ZM67.4692 46.8857C67.2243 46.9486 66.9649 46.9669 66.7009 46.9343L64.2939 52.7245C64.5953 52.9595 64.8364 53.2782 64.9739 53.6646C65.2408 54.4139 65.0516 55.2149 64.5506 55.7649L67.7728 60.9301C67.9791 60.8649 68.191 60.8326 68.402 60.8346C69.4826 55.9453 69.5044 51.2688 67.4692 46.8857ZM22.7856 49.6518L6.07235 59.304C7.32805 61.2616 8.7584 63.1012 10.3459 64.8007L23.9778 51.1658C23.5554 50.6814 23.1574 50.176 22.7856 49.6518ZM56.0197 51.1647C55.5141 51.7376 54.7336 51.9805 54.0001 51.8133L66.7997 64.6168C66.858 64.5535 66.9159 64.4899 66.9737 64.4261C66.8455 64.3064 66.7295 64.1689 66.6321 64.0129C66.1197 63.1917 66.2526 62.1519 66.8899 61.4809L63.6775 56.3325C62.6056 56.6935 61.4372 56.1297 61.0562 55.0605C60.9107 54.6519 60.9017 54.2282 61.0042 53.8379L56.0197 51.1647ZM50.9557 53.1806C50.4849 53.5807 49.995 53.9578 49.4879 54.3107L59.1331 71.0212C61.0753 69.7879 62.9033 68.3828 64.5946 66.823L50.9557 53.1806ZM26.2123 53.3429L12.5659 66.9928C14.2812 68.5537 16.134 69.9567 18.1016 71.184L27.7405 54.4843C27.2125 54.1294 26.7025 53.7484 26.2123 53.3429ZM46.7929 55.8795C46.2339 56.1466 45.6623 56.3866 45.08 56.5985L50.0724 75.2402C52.2685 74.5472 54.3979 73.6586 56.4351 72.5852L46.7929 55.8795ZM30.4623 56.0115L20.8132 72.7291C22.869 73.7913 25.0166 74.6658 27.2294 75.3425L32.2203 56.7155C31.623 56.5098 31.0363 56.2749 30.4623 56.0115ZM42.0719 57.427C41.4605 57.5429 40.8439 57.6292 40.2241 57.6855V76.9859C42.5271 76.8816 44.8158 76.5707 47.0631 76.057L42.0719 57.427ZM35.2403 57.4879L30.2474 76.1327C32.5026 76.6266 34.7976 76.9166 37.1048 76.9993V57.7134C36.48 57.6688 35.8578 57.5933 35.2403 57.4879Z"
            fill="white" />
    </mask>
    <g mask="url(#mask0_158_6)">
        <path
            d="M37.1048 0C34.7668 0.0839652 32.4416 0.380813 30.1576 0.886862L35.1494 19.5278C35.7966 19.4138 36.4492 19.3331 37.1048 19.2859V0ZM40.2241 0.020295V19.3208C40.8745 19.3797 41.5215 19.4717 42.1626 19.5964L47.1528 0.968849C44.8769 0.443133 42.5577 0.12564 40.2241 0.020295ZM27.1414 1.69133C24.9029 2.38163 22.7319 3.27476 20.6558 4.35963L30.301 21.07C30.8983 20.7892 31.5097 20.5394 32.1328 20.3215L27.1414 1.69133ZM50.16 1.7928L45.1671 20.438C45.7747 20.6629 46.3707 20.9182 46.9526 21.2033L56.5919 4.50289C54.5345 3.40667 52.3816 2.49959 50.16 1.7928ZM17.9511 5.91476C15.9685 7.16478 14.1041 8.5932 12.3811 10.1823L26.0194 23.8242C26.523 23.3963 27.0483 22.9944 27.5931 22.6204L17.9511 5.91476ZM59.2832 6.07915L49.634 22.7972C50.1578 23.169 50.6625 23.567 51.1465 23.9892L64.7783 10.3537C63.0795 8.76587 61.2401 7.33517 59.2832 6.07915ZM10.1745 12.3891C8.58557 14.1128 7.15728 15.978 5.90742 17.9615L22.6087 27.6064C22.9827 27.0611 23.3847 26.535 23.8128 26.0308L10.1745 12.3891ZM66.9695 12.5737L54.8924 24.6554C55.3511 24.7 55.7986 24.8941 56.1524 25.2423C56.2791 25.366 56.3836 25.5046 56.4716 25.6495L62.9435 23.837C62.9253 22.9011 63.5413 22.0369 64.4855 21.7855C64.7288 21.7206 64.9735 21.7043 65.2104 21.7267L67.6185 15.362C66.8624 14.8284 66.5291 13.8342 66.8716 12.9287C66.9121 12.8211 66.961 12.7213 67.0162 12.6255C67.0006 12.6086 66.9852 12.5906 66.9695 12.5737ZM69.4749 15.6284C69.1942 15.7218 68.8941 15.7624 68.5909 15.7299L66.1888 22.0778C66.5876 22.3491 66.8954 22.7583 67.0292 23.2608C67.1862 23.8515 67.0705 24.4497 66.7621 24.9257C68.7203 26.7033 71.2272 27.971 74.0454 28.9654C74.3923 28.4455 74.9522 28.1188 75.5557 28.0539C74.2951 23.5789 72.2348 19.3693 69.4749 15.6284ZM4.35142 20.6671C3.26704 22.7438 2.37433 24.915 1.68436 27.1537L20.3103 32.1464C20.528 31.5229 20.7776 30.9111 21.0582 30.3133L4.35142 20.6671ZM63.2236 24.8386L56.7697 26.6455C56.784 27.0318 56.6916 27.4205 56.492 27.7655L62.0576 33.2417C62.3264 33.0853 62.6325 32.9881 62.9565 32.9654L64.1461 25.6819C63.7648 25.5052 63.4405 25.2126 63.2236 24.8386ZM66.0609 25.5943C65.9056 25.6836 65.7371 25.7567 65.5554 25.8055C65.4269 25.8398 65.298 25.8603 65.1702 25.8684L63.98 33.1535C64.3095 33.3077 64.5909 33.5425 64.7977 33.8335L73.7075 30.3402C73.6934 30.2084 73.6914 30.0751 73.7013 29.9413C70.7859 28.8998 68.1586 27.5319 66.0609 25.5943ZM55.7634 28.5067C55.5555 28.6325 55.3298 28.7141 55.0981 28.7603C56.8302 31.7147 57.7432 35.0776 57.7432 38.5026C57.7432 40.8199 57.3247 43.1182 56.5085 45.287L61.6616 36.5362C61.2289 36.1187 60.9787 35.5187 61.0304 34.8728C61.0568 34.5437 61.1602 34.2397 61.3188 33.9743L55.7634 28.5067ZM0.886492 30.171C0.380589 32.4557 0.0838631 34.7817 0 37.1203H19.2809C19.328 36.4645 19.4087 35.8116 19.5226 35.1641L0.886492 30.171ZM74.074 31.3152L65.1686 34.8062C65.1827 34.936 65.1867 35.0688 65.1765 35.2039C65.1275 35.8215 64.8111 36.3528 64.352 36.6984L66.7396 42.8058C66.928 42.7856 67.122 42.7856 67.3178 42.826C67.4912 42.8564 67.654 42.9112 67.8077 42.9803C70.5395 39.5879 72.7212 35.8177 74.5114 31.7702C74.3411 31.6401 74.1941 31.4866 74.074 31.3152ZM76.461 32.0815C76.1486 32.191 75.8094 32.2275 75.4714 32.1767C73.6611 36.3092 71.4736 40.2067 68.6662 43.7014C68.8255 43.9346 68.9363 44.2004 68.9907 44.4826L73.5533 44.762C73.839 43.8818 74.69 43.2691 75.6562 43.3283C76.0245 43.3507 76.3644 43.4684 76.6539 43.6557C76.8845 41.9478 77 40.2263 77 38.5028C77 36.3512 76.8196 34.2029 76.461 32.0815ZM62.5691 37.0466L55.931 48.3175C56.0043 48.3905 56.0734 48.4677 56.1341 48.5502L64.8886 45.1418C64.8615 44.9358 64.865 44.722 64.9029 44.5066C65.0038 43.941 65.3253 43.4706 65.7624 43.1664L63.3897 37.0968C63.2425 37.117 63.0912 37.1252 62.9369 37.117C62.8098 37.0968 62.6872 37.0825 62.5682 37.0521L62.5691 37.0466ZM0.0144876 40.2399C0.119774 42.5744 0.437184 44.8943 0.962797 47.171L19.5855 42.1784C19.4608 41.5373 19.3689 40.8903 19.3099 40.2399H0.0144876ZM20.4269 45.1842L1.787 50.1791C2.49352 52.4009 3.40023 54.5538 4.49596 56.6115L21.1914 46.9702C20.9067 46.3881 20.6516 45.7921 20.4269 45.1842ZM68.9247 45.5197C68.8153 45.8554 68.6253 46.1474 68.3804 46.3795C70.5632 51.0419 70.5296 56.0223 69.4071 61.0957C69.4714 61.1322 69.5332 61.1729 69.5937 61.2156C72.6042 57.0904 74.7646 52.4077 75.9491 47.4397C75.7731 47.4762 75.59 47.4925 75.4021 47.4804C74.4359 47.4214 73.6659 46.7088 73.4899 45.7998L68.9247 45.5197ZM65.2782 46.1054L56.5215 49.5154C56.5532 49.7538 56.5448 49.9987 56.4914 50.2387L61.5096 52.9311C61.7272 52.7016 61.9993 52.5168 62.3176 52.4035C62.6567 52.2819 63.0062 52.2555 63.3384 52.308L65.7314 46.5555C65.5571 46.4296 65.4045 46.2772 65.2782 46.1054ZM67.4692 46.8857C67.2243 46.9486 66.9649 46.9669 66.7009 46.9343L64.2939 52.7245C64.5953 52.9595 64.8364 53.2782 64.9739 53.6646C65.2408 54.4139 65.0516 55.2149 64.5506 55.7649L67.7728 60.9301C67.9791 60.8649 68.191 60.8326 68.402 60.8346C69.4826 55.9453 69.5044 51.2688 67.4692 46.8857ZM22.7856 49.6518L6.07235 59.304C7.32805 61.2616 8.7584 63.1012 10.3459 64.8007L23.9778 51.1658C23.5554 50.6814 23.1574 50.176 22.7856 49.6518ZM56.0197 51.1647C55.5141 51.7376 54.7336 51.9805 54.0001 51.8133L66.7997 64.6168C66.858 64.5535 66.9159 64.4899 66.9737 64.4261C66.8455 64.3064 66.7295 64.1689 66.6321 64.0129C66.1197 63.1917 66.2526 62.1519 66.8899 61.4809L63.6775 56.3325C62.6056 56.6935 61.4372 56.1297 61.0562 55.0605C60.9107 54.6519 60.9017 54.2282 61.0042 53.8379L56.0197 51.1647ZM50.9557 53.1806C50.4849 53.5807 49.995 53.9578 49.4879 54.3107L59.1331 71.0212C61.0753 69.7879 62.9033 68.3828 64.5946 66.823L50.9557 53.1806ZM26.2123 53.3429L12.5659 66.9928C14.2812 68.5537 16.134 69.9567 18.1016 71.184L27.7405 54.4843C27.2125 54.1294 26.7025 53.7484 26.2123 53.3429ZM46.7929 55.8795C46.2339 56.1466 45.6623 56.3866 45.08 56.5985L50.0724 75.2402C52.2685 74.5472 54.3979 73.6586 56.4351 72.5852L46.7929 55.8795ZM30.4623 56.0115L20.8132 72.7291C22.869 73.7913 25.0166 74.6658 27.2294 75.3425L32.2203 56.7155C31.623 56.5098 31.0363 56.2749 30.4623 56.0115ZM42.0719 57.427C41.4605 57.5429 40.8439 57.6292 40.2241 57.6855V76.9859C42.5271 76.8816 44.8158 76.5707 47.0631 76.057L42.0719 57.427ZM35.2403 57.4879L30.2474 76.1327C32.5026 76.6266 34.7976 76.9166 37.1048 76.9993V57.7134C36.48 57.6688 35.8578 57.5933 35.2403 57.4879Z"
            stroke="url(#paint0_linear_158_6)" stroke-width="16.6299" />
    </g>
    <path
        d="M91.3594 42V37.8281L103.391 22.9688H92.7188V19.0938H109.484V22.6875L96.9375 38.1406H109.969V42H91.3594ZM111.969 30.6875C111.969 28.3542 112.318 26.3958 113.016 24.8125C113.536 23.6458 114.245 22.599 115.141 21.6719C116.047 20.7448 117.036 20.0573 118.109 19.6094C119.536 19.0052 121.182 18.7031 123.047 18.7031C126.422 18.7031 129.12 19.75 131.141 21.8438C133.172 23.9375 134.188 26.849 134.188 30.5781C134.188 34.276 133.182 37.1719 131.172 39.2656C129.161 41.349 126.474 42.3906 123.109 42.3906C119.703 42.3906 116.995 41.3542 114.984 39.2812C112.974 37.1979 111.969 34.3333 111.969 30.6875ZM116.734 30.5312C116.734 33.125 117.333 35.0938 118.531 36.4375C119.729 37.7708 121.25 38.4375 123.094 38.4375C124.938 38.4375 126.448 37.776 127.625 36.4531C128.812 35.1198 129.406 33.125 129.406 30.4688C129.406 27.8438 128.828 25.8854 127.672 24.5938C126.526 23.3021 125 22.6562 123.094 22.6562C121.188 22.6562 119.651 23.3125 118.484 24.625C117.318 25.9271 116.734 27.8958 116.734 30.5312ZM137.938 42V19.2812H142.562V38.1406H154.062V42H137.938ZM157.422 42V19.0938H161.922L171.297 34.3906V19.0938H175.594V42H170.953L161.719 27.0625V42H157.422ZM179.562 30.6875C179.562 28.3542 179.911 26.3958 180.609 24.8125C181.13 23.6458 181.839 22.599 182.734 21.6719C183.641 20.7448 184.63 20.0573 185.703 19.6094C187.13 19.0052 188.776 18.7031 190.641 18.7031C194.016 18.7031 196.714 19.75 198.734 21.8438C200.766 23.9375 201.781 26.849 201.781 30.5781C201.781 34.276 200.776 37.1719 198.766 39.2656C196.755 41.349 194.068 42.3906 190.703 42.3906C187.297 42.3906 184.589 41.3542 182.578 39.2812C180.568 37.1979 179.562 34.3333 179.562 30.6875ZM184.328 30.5312C184.328 33.125 184.927 35.0938 186.125 36.4375C187.323 37.7708 188.844 38.4375 190.688 38.4375C192.531 38.4375 194.042 37.776 195.219 36.4531C196.406 35.1198 197 33.125 197 30.4688C197 27.8438 196.422 25.8854 195.266 24.5938C194.12 23.3021 192.594 22.6562 190.688 22.6562C188.781 22.6562 187.245 23.3125 186.078 24.625C184.911 25.9271 184.328 27.8958 184.328 30.5312ZM205.266 42V19.0938H209.891V42H205.266Z"
        fill="#00D4AA" />
    <path
        d="M91.4082 62L95.2568 51.9785H96.6855L100.787 62H99.2764L98.1074 58.9648H93.917L92.8164 62H91.4082ZM94.2998 57.8848H97.6973L96.6514 55.1094C96.3324 54.2663 96.0954 53.5736 95.9404 53.0312C95.8128 53.6738 95.6328 54.3118 95.4004 54.9453L94.2998 57.8848ZM102.072 62V51.9785H103.398V62H102.072ZM109.776 62V55.6973H108.689V54.7402H109.776V53.9678C109.776 53.4801 109.82 53.1178 109.906 52.8809C110.025 52.5618 110.232 52.3044 110.528 52.1084C110.829 51.9079 111.248 51.8076 111.786 51.8076C112.132 51.8076 112.515 51.8486 112.935 51.9307L112.75 53.0039C112.495 52.9583 112.253 52.9355 112.025 52.9355C111.652 52.9355 111.387 53.0153 111.232 53.1748C111.077 53.3343 111 53.6328 111 54.0703V54.7402H112.415V55.6973H111V62H109.776ZM112.921 58.3701C112.921 57.0257 113.295 56.0299 114.042 55.3828C114.666 54.8451 115.427 54.5762 116.325 54.5762C117.323 54.5762 118.139 54.9043 118.772 55.5605C119.406 56.2122 119.723 57.1146 119.723 58.2676C119.723 59.2018 119.581 59.9378 119.299 60.4756C119.021 61.0088 118.613 61.4235 118.075 61.7197C117.542 62.016 116.959 62.1641 116.325 62.1641C115.309 62.1641 114.486 61.8382 113.857 61.1865C113.233 60.5348 112.921 59.596 112.921 58.3701ZM114.186 58.3701C114.186 59.2998 114.388 59.9971 114.794 60.4619C115.2 60.9222 115.71 61.1523 116.325 61.1523C116.936 61.1523 117.444 60.9199 117.85 60.4551C118.255 59.9902 118.458 59.2816 118.458 58.3291C118.458 57.4313 118.253 56.7523 117.843 56.292C117.437 55.8271 116.931 55.5947 116.325 55.5947C115.71 55.5947 115.2 55.8249 114.794 56.2852C114.388 56.7454 114.186 57.4404 114.186 58.3701ZM121.158 62V54.7402H122.266V55.8408C122.548 55.3258 122.808 54.9863 123.045 54.8223C123.286 54.6582 123.551 54.5762 123.838 54.5762C124.253 54.5762 124.674 54.7083 125.103 54.9727L124.679 56.1143C124.378 55.9365 124.077 55.8477 123.776 55.8477C123.507 55.8477 123.266 55.9297 123.052 56.0938C122.838 56.2533 122.685 56.4766 122.594 56.7637C122.457 57.2012 122.389 57.6797 122.389 58.1992V62H121.158ZM134.7 59.6621L135.972 59.8193C135.771 60.5622 135.4 61.1387 134.857 61.5488C134.315 61.959 133.622 62.1641 132.779 62.1641C131.717 62.1641 130.874 61.8382 130.25 61.1865C129.63 60.5303 129.32 59.612 129.32 58.4316C129.32 57.2103 129.635 56.2624 130.264 55.5879C130.893 54.9134 131.708 54.5762 132.711 54.5762C133.682 54.5762 134.475 54.9066 135.09 55.5674C135.705 56.2282 136.013 57.1579 136.013 58.3564C136.013 58.4294 136.01 58.5387 136.006 58.6846H130.592C130.637 59.4821 130.863 60.0928 131.269 60.5166C131.674 60.9404 132.18 61.1523 132.786 61.1523C133.237 61.1523 133.622 61.0339 133.941 60.7969C134.26 60.5599 134.513 60.1816 134.7 59.6621ZM130.66 57.6729H134.714C134.659 57.0622 134.504 56.6042 134.249 56.2988C133.857 55.8249 133.349 55.5879 132.725 55.5879C132.16 55.5879 131.683 55.777 131.296 56.1553C130.913 56.5335 130.701 57.0394 130.66 57.6729ZM137.523 62V54.7402H138.631V55.7725C139.164 54.9749 139.934 54.5762 140.941 54.5762C141.379 54.5762 141.78 54.6559 142.145 54.8154C142.514 54.9704 142.789 55.1755 142.972 55.4307C143.154 55.6859 143.282 55.9889 143.354 56.3398C143.4 56.5677 143.423 56.9665 143.423 57.5361V62H142.192V57.584C142.192 57.0827 142.145 56.709 142.049 56.4629C141.953 56.2122 141.782 56.014 141.536 55.8682C141.295 55.7178 141.01 55.6426 140.682 55.6426C140.158 55.6426 139.704 55.8089 139.321 56.1416C138.943 56.4743 138.754 57.1055 138.754 58.0352V62H137.523ZM150.286 59.6621L151.558 59.8193C151.357 60.5622 150.986 61.1387 150.443 61.5488C149.901 61.959 149.208 62.1641 148.365 62.1641C147.303 62.1641 146.46 61.8382 145.836 61.1865C145.216 60.5303 144.906 59.612 144.906 58.4316C144.906 57.2103 145.221 56.2624 145.85 55.5879C146.479 54.9134 147.294 54.5762 148.297 54.5762C149.268 54.5762 150.061 54.9066 150.676 55.5674C151.291 56.2282 151.599 57.1579 151.599 58.3564C151.599 58.4294 151.596 58.5387 151.592 58.6846H146.178C146.223 59.4821 146.449 60.0928 146.854 60.5166C147.26 60.9404 147.766 61.1523 148.372 61.1523C148.823 61.1523 149.208 61.0339 149.527 60.7969C149.846 60.5599 150.099 60.1816 150.286 59.6621ZM146.246 57.6729H150.3C150.245 57.0622 150.09 56.6042 149.835 56.2988C149.443 55.8249 148.935 55.5879 148.311 55.5879C147.745 55.5879 147.269 55.777 146.882 56.1553C146.499 56.5335 146.287 57.0394 146.246 57.6729ZM153.096 62V54.7402H154.203V55.8408C154.486 55.3258 154.745 54.9863 154.982 54.8223C155.224 54.6582 155.488 54.5762 155.775 54.5762C156.19 54.5762 156.612 54.7083 157.04 54.9727L156.616 56.1143C156.315 55.9365 156.015 55.8477 155.714 55.8477C155.445 55.8477 155.203 55.9297 154.989 56.0938C154.775 56.2533 154.622 56.4766 154.531 56.7637C154.395 57.2012 154.326 57.6797 154.326 58.1992V62H153.096ZM157.546 62.6016L158.742 62.7793C158.792 63.1484 158.931 63.4173 159.159 63.5859C159.465 63.8138 159.882 63.9277 160.41 63.9277C160.98 63.9277 161.42 63.8138 161.729 63.5859C162.039 63.3581 162.249 63.0391 162.358 62.6289C162.422 62.3783 162.452 61.8519 162.447 61.0498C161.91 61.6833 161.24 62 160.438 62C159.439 62 158.667 61.64 158.12 60.9199C157.573 60.1999 157.3 59.3363 157.3 58.3291C157.3 57.6364 157.425 56.9984 157.676 56.415C157.926 55.8271 158.289 55.3737 158.763 55.0547C159.241 54.7357 159.802 54.5762 160.444 54.5762C161.301 54.5762 162.007 54.9225 162.563 55.6152V54.7402H163.698V61.0156C163.698 62.1458 163.582 62.9456 163.35 63.415C163.122 63.889 162.757 64.2627 162.256 64.5361C161.759 64.8096 161.146 64.9463 160.417 64.9463C159.551 64.9463 158.852 64.7503 158.318 64.3584C157.785 63.971 157.528 63.3854 157.546 62.6016ZM158.564 58.2402C158.564 59.1927 158.754 59.8877 159.132 60.3252C159.51 60.7627 159.984 60.9814 160.554 60.9814C161.119 60.9814 161.593 60.765 161.976 60.332C162.358 59.8945 162.55 59.2109 162.55 58.2812C162.55 57.3926 162.352 56.7227 161.955 56.2715C161.563 55.8203 161.089 55.5947 160.533 55.5947C159.986 55.5947 159.521 55.818 159.139 56.2646C158.756 56.7067 158.564 57.3652 158.564 58.2402ZM165.51 64.7959L165.373 63.6406C165.642 63.7135 165.877 63.75 166.077 63.75C166.351 63.75 166.569 63.7044 166.733 63.6133C166.897 63.5221 167.032 63.3945 167.137 63.2305C167.214 63.1074 167.34 62.8021 167.513 62.3145C167.535 62.2461 167.572 62.1458 167.622 62.0137L164.867 54.7402H166.193L167.704 58.9443C167.9 59.4775 168.076 60.0381 168.23 60.626C168.372 60.0609 168.54 59.5094 168.736 58.9717L170.288 54.7402H171.519L168.757 62.123C168.461 62.9206 168.23 63.4697 168.066 63.7705C167.848 64.1761 167.597 64.4723 167.314 64.6592C167.032 64.8506 166.695 64.9463 166.303 64.9463C166.066 64.9463 165.801 64.8962 165.51 64.7959ZM181.431 59.6621L182.702 59.8193C182.502 60.5622 182.13 61.1387 181.588 61.5488C181.046 61.959 180.353 62.1641 179.51 62.1641C178.448 62.1641 177.605 61.8382 176.98 61.1865C176.361 60.5303 176.051 59.612 176.051 58.4316C176.051 57.2103 176.365 56.2624 176.994 55.5879C177.623 54.9134 178.439 54.5762 179.441 54.5762C180.412 54.5762 181.205 54.9066 181.82 55.5674C182.436 56.2282 182.743 57.1579 182.743 58.3564C182.743 58.4294 182.741 58.5387 182.736 58.6846H177.322C177.368 59.4821 177.593 60.0928 177.999 60.5166C178.405 60.9404 178.91 61.1523 179.517 61.1523C179.968 61.1523 180.353 61.0339 180.672 60.7969C180.991 60.5599 181.244 60.1816 181.431 59.6621ZM177.391 57.6729H181.444C181.39 57.0622 181.235 56.6042 180.979 56.2988C180.588 55.8249 180.079 55.5879 179.455 55.5879C178.89 55.5879 178.414 55.777 178.026 56.1553C177.644 56.5335 177.432 57.0394 177.391 57.6729ZM184.548 62V55.6973H183.461V54.7402H184.548V53.9678C184.548 53.4801 184.591 53.1178 184.678 52.8809C184.796 52.5618 185.004 52.3044 185.3 52.1084C185.601 51.9079 186.02 51.8076 186.558 51.8076C186.904 51.8076 187.287 51.8486 187.706 51.9307L187.521 53.0039C187.266 52.9583 187.025 52.9355 186.797 52.9355C186.423 52.9355 186.159 53.0153 186.004 53.1748C185.849 53.3343 185.771 53.6328 185.771 54.0703V54.7402H187.187V55.6973H185.771V62H184.548ZM188.185 62V55.6973H187.098V54.7402H188.185V53.9678C188.185 53.4801 188.228 53.1178 188.314 52.8809C188.433 52.5618 188.64 52.3044 188.937 52.1084C189.237 51.9079 189.657 51.8076 190.194 51.8076C190.541 51.8076 190.924 51.8486 191.343 51.9307L191.158 53.0039C190.903 52.9583 190.661 52.9355 190.434 52.9355C190.06 52.9355 189.796 53.0153 189.641 53.1748C189.486 53.3343 189.408 53.6328 189.408 54.0703V54.7402H190.823V55.6973H189.408V62H188.185ZM191.794 53.3936V51.9785H193.024V53.3936H191.794ZM191.794 62V54.7402H193.024V62H191.794ZM199.642 59.3408L200.852 59.498C200.719 60.332 200.38 60.986 199.833 61.46C199.291 61.9294 198.623 62.1641 197.83 62.1641C196.837 62.1641 196.037 61.8405 195.431 61.1934C194.829 60.5417 194.528 59.6097 194.528 58.3975C194.528 57.6136 194.658 56.9277 194.918 56.3398C195.178 55.752 195.572 55.3122 196.101 55.0205C196.634 54.7243 197.213 54.5762 197.837 54.5762C198.625 54.5762 199.27 54.7767 199.771 55.1777C200.273 55.5742 200.594 56.1393 200.735 56.873L199.539 57.0576C199.425 56.57 199.222 56.2031 198.931 55.957C198.644 55.7109 198.295 55.5879 197.885 55.5879C197.265 55.5879 196.761 55.8112 196.374 56.2578C195.987 56.6999 195.793 57.4017 195.793 58.3633C195.793 59.3385 195.98 60.0472 196.354 60.4893C196.727 60.9313 197.215 61.1523 197.816 61.1523C198.299 61.1523 198.703 61.0042 199.026 60.708C199.35 60.4118 199.555 59.9561 199.642 59.3408ZM201.911 53.3936V51.9785H203.142V53.3936H201.911ZM201.911 62V54.7402H203.142V62H201.911ZM209.991 59.6621L211.263 59.8193C211.062 60.5622 210.691 61.1387 210.148 61.5488C209.606 61.959 208.913 62.1641 208.07 62.1641C207.008 62.1641 206.165 61.8382 205.541 61.1865C204.921 60.5303 204.611 59.612 204.611 58.4316C204.611 57.2103 204.926 56.2624 205.555 55.5879C206.184 54.9134 206.999 54.5762 208.002 54.5762C208.973 54.5762 209.766 54.9066 210.381 55.5674C210.996 56.2282 211.304 57.1579 211.304 58.3564C211.304 58.4294 211.301 58.5387 211.297 58.6846H205.883C205.928 59.4821 206.154 60.0928 206.56 60.5166C206.965 60.9404 207.471 61.1523 208.077 61.1523C208.528 61.1523 208.913 61.0339 209.232 60.7969C209.551 60.5599 209.804 60.1816 209.991 59.6621ZM205.951 57.6729H210.005C209.95 57.0622 209.795 56.6042 209.54 56.2988C209.148 55.8249 208.64 55.5879 208.016 55.5879C207.451 55.5879 206.974 55.777 206.587 56.1553C206.204 56.5335 205.992 57.0394 205.951 57.6729ZM212.814 62V54.7402H213.922V55.7725C214.455 54.9749 215.225 54.5762 216.232 54.5762C216.67 54.5762 217.071 54.6559 217.436 54.8154C217.805 54.9704 218.08 55.1755 218.263 55.4307C218.445 55.6859 218.573 55.9889 218.646 56.3398C218.691 56.5677 218.714 56.9665 218.714 57.5361V62H217.483V57.584C217.483 57.0827 217.436 56.709 217.34 56.4629C217.244 56.2122 217.073 56.014 216.827 55.8682C216.586 55.7178 216.301 55.6426 215.973 55.6426C215.449 55.6426 214.995 55.8089 214.612 56.1416C214.234 56.4743 214.045 57.1055 214.045 58.0352V62H212.814ZM225.345 59.3408L226.555 59.498C226.423 60.332 226.083 60.986 225.536 61.46C224.994 61.9294 224.326 62.1641 223.533 62.1641C222.54 62.1641 221.74 61.8405 221.134 61.1934C220.532 60.5417 220.231 59.6097 220.231 58.3975C220.231 57.6136 220.361 56.9277 220.621 56.3398C220.881 55.752 221.275 55.3122 221.804 55.0205C222.337 54.7243 222.916 54.5762 223.54 54.5762C224.328 54.5762 224.973 54.7767 225.475 55.1777C225.976 55.5742 226.297 56.1393 226.438 56.873L225.242 57.0576C225.128 56.57 224.925 56.2031 224.634 55.957C224.347 55.7109 223.998 55.5879 223.588 55.5879C222.968 55.5879 222.465 55.8112 222.077 56.2578C221.69 56.6999 221.496 57.4017 221.496 58.3633C221.496 59.3385 221.683 60.0472 222.057 60.4893C222.43 60.9313 222.918 61.1523 223.52 61.1523C224.003 61.1523 224.406 61.0042 224.729 60.708C225.053 60.4118 225.258 59.9561 225.345 59.3408ZM227.553 64.7959L227.416 63.6406C227.685 63.7135 227.92 63.75 228.12 63.75C228.394 63.75 228.612 63.7044 228.776 63.6133C228.94 63.5221 229.075 63.3945 229.18 63.2305C229.257 63.1074 229.382 62.8021 229.556 62.3145C229.578 62.2461 229.615 62.1458 229.665 62.0137L226.91 54.7402H228.236L229.747 58.9443C229.943 59.4775 230.118 60.0381 230.273 60.626C230.415 60.0609 230.583 59.5094 230.779 58.9717L232.331 54.7402H233.562L230.8 62.123C230.504 62.9206 230.273 63.4697 230.109 63.7705C229.891 64.1761 229.64 64.4723 229.357 64.6592C229.075 64.8506 228.738 64.9463 228.346 64.9463C228.109 64.9463 227.844 64.8962 227.553 64.7959ZM243.241 61.1045C242.785 61.4919 242.346 61.7653 241.922 61.9248C241.503 62.0843 241.051 62.1641 240.568 62.1641C239.771 62.1641 239.158 61.9704 238.729 61.583C238.301 61.1911 238.087 60.6921 238.087 60.0859C238.087 59.7305 238.167 59.4069 238.326 59.1152C238.49 58.819 238.702 58.582 238.962 58.4043C239.226 58.2266 239.522 58.0921 239.851 58.001C240.092 57.9372 240.457 57.8757 240.944 57.8164C241.938 57.6979 242.669 57.5566 243.139 57.3926C243.143 57.224 243.146 57.1169 243.146 57.0713C243.146 56.57 243.029 56.2168 242.797 56.0117C242.482 55.7337 242.015 55.5947 241.396 55.5947C240.817 55.5947 240.388 55.6973 240.11 55.9023C239.837 56.1029 239.634 56.4606 239.502 56.9756L238.299 56.8115C238.408 56.2965 238.588 55.8818 238.839 55.5674C239.09 55.2484 239.452 55.0046 239.926 54.8359C240.4 54.6628 240.949 54.5762 241.573 54.5762C242.193 54.5762 242.697 54.6491 243.084 54.7949C243.471 54.9408 243.756 55.1253 243.938 55.3486C244.121 55.5674 244.248 55.8454 244.321 56.1826C244.362 56.3923 244.383 56.7705 244.383 57.3174V58.958C244.383 60.1019 244.408 60.8265 244.458 61.1318C244.513 61.4326 244.618 61.722 244.772 62H243.487C243.36 61.7448 243.278 61.4463 243.241 61.1045ZM243.139 58.3564C242.692 58.5387 242.022 58.6937 241.129 58.8213C240.623 58.8942 240.265 58.9762 240.056 59.0674C239.846 59.1585 239.684 59.293 239.57 59.4707C239.456 59.6439 239.399 59.8376 239.399 60.0518C239.399 60.3799 239.522 60.6533 239.769 60.8721C240.019 61.0908 240.384 61.2002 240.862 61.2002C241.336 61.2002 241.758 61.0977 242.127 60.8926C242.496 60.6829 242.767 60.3981 242.94 60.0381C243.073 59.7601 243.139 59.3499 243.139 58.8076V58.3564ZM246.297 62V54.7402H247.404V55.7725C247.938 54.9749 248.708 54.5762 249.715 54.5762C250.152 54.5762 250.553 54.6559 250.918 54.8154C251.287 54.9704 251.563 55.1755 251.745 55.4307C251.927 55.6859 252.055 55.9889 252.128 56.3398C252.174 56.5677 252.196 56.9665 252.196 57.5361V62H250.966V57.584C250.966 57.0827 250.918 56.709 250.822 56.4629C250.727 56.2122 250.556 56.014 250.31 55.8682C250.068 55.7178 249.783 55.6426 249.455 55.6426C248.931 55.6426 248.478 55.8089 248.095 56.1416C247.716 56.4743 247.527 57.1055 247.527 58.0352V62H246.297ZM258.8 62V61.084C258.34 61.804 257.663 62.1641 256.77 62.1641C256.191 62.1641 255.658 62.0046 255.17 61.6855C254.687 61.3665 254.311 60.9222 254.042 60.3525C253.778 59.7783 253.646 59.1198 253.646 58.377C253.646 57.6523 253.766 56.9961 254.008 56.4082C254.249 55.8158 254.612 55.3623 255.095 55.0479C255.578 54.7334 256.118 54.5762 256.715 54.5762C257.152 54.5762 257.542 54.6696 257.884 54.8564C258.226 55.0387 258.504 55.278 258.718 55.5742V51.9785H259.941V62H258.8ZM254.91 58.377C254.91 59.3066 255.106 60.0016 255.498 60.4619C255.89 60.9222 256.353 61.1523 256.886 61.1523C257.424 61.1523 257.879 60.9336 258.253 60.4961C258.631 60.054 258.82 59.3818 258.82 58.4795C258.82 57.486 258.629 56.7568 258.246 56.292C257.863 55.8271 257.392 55.5947 256.831 55.5947C256.284 55.5947 255.826 55.818 255.457 56.2646C255.092 56.7113 254.91 57.4154 254.91 58.377ZM265.287 59.833L266.504 59.6416C266.572 60.1292 266.761 60.5029 267.071 60.7627C267.386 61.0225 267.823 61.1523 268.384 61.1523C268.949 61.1523 269.368 61.0384 269.642 60.8105C269.915 60.5781 270.052 60.307 270.052 59.9971C270.052 59.7191 269.931 59.5003 269.689 59.3408C269.521 59.2314 269.102 59.0924 268.432 58.9238C267.529 58.696 266.903 58.5 266.552 58.3359C266.205 58.1673 265.941 57.9372 265.759 57.6455C265.581 57.3493 265.492 57.0234 265.492 56.668C265.492 56.3444 265.565 56.0459 265.711 55.7725C265.861 55.4945 266.064 55.2643 266.319 55.082C266.511 54.9408 266.771 54.8223 267.099 54.7266C267.431 54.6263 267.787 54.5762 268.165 54.5762C268.735 54.5762 269.234 54.6582 269.662 54.8223C270.095 54.9863 270.414 55.2096 270.619 55.4922C270.824 55.7702 270.965 56.1439 271.043 56.6133L269.84 56.7773C269.785 56.4036 269.626 56.112 269.361 55.9023C269.102 55.6927 268.732 55.5879 268.254 55.5879C267.689 55.5879 267.285 55.6813 267.044 55.8682C266.802 56.055 266.682 56.2738 266.682 56.5244C266.682 56.6839 266.732 56.8275 266.832 56.9551C266.932 57.0872 267.09 57.1966 267.304 57.2832C267.427 57.3288 267.789 57.4336 268.391 57.5977C269.261 57.8301 269.867 58.0215 270.209 58.1719C270.555 58.3177 270.826 58.5319 271.022 58.8145C271.218 59.097 271.316 59.4479 271.316 59.8672C271.316 60.2773 271.196 60.6647 270.954 61.0293C270.717 61.3893 270.373 61.6696 269.922 61.8701C269.471 62.0661 268.96 62.1641 268.391 62.1641C267.447 62.1641 266.727 61.9681 266.23 61.5762C265.738 61.1842 265.424 60.6032 265.287 59.833ZM277.537 62V60.9336C276.972 61.7539 276.204 62.1641 275.233 62.1641C274.805 62.1641 274.404 62.082 274.03 61.918C273.661 61.7539 273.385 61.5488 273.203 61.3027C273.025 61.0521 272.9 60.7467 272.827 60.3867C272.777 60.1452 272.752 59.7624 272.752 59.2383V54.7402H273.982V58.7666C273.982 59.4092 274.007 59.8421 274.058 60.0654C274.135 60.389 274.299 60.6442 274.55 60.8311C274.8 61.0133 275.11 61.1045 275.479 61.1045C275.849 61.1045 276.195 61.0111 276.519 60.8242C276.842 60.6328 277.07 60.3753 277.202 60.0518C277.339 59.7236 277.407 59.2497 277.407 58.6299V54.7402H278.638V62H277.537ZM280.08 59.833L281.297 59.6416C281.365 60.1292 281.554 60.5029 281.864 60.7627C282.179 61.0225 282.616 61.1523 283.177 61.1523C283.742 61.1523 284.161 61.0384 284.435 60.8105C284.708 60.5781 284.845 60.307 284.845 59.9971C284.845 59.7191 284.724 59.5003 284.482 59.3408C284.314 59.2314 283.895 59.0924 283.225 58.9238C282.322 58.696 281.696 58.5 281.345 58.3359C280.998 58.1673 280.734 57.9372 280.552 57.6455C280.374 57.3493 280.285 57.0234 280.285 56.668C280.285 56.3444 280.358 56.0459 280.504 55.7725C280.654 55.4945 280.857 55.2643 281.112 55.082C281.304 54.9408 281.563 54.8223 281.892 54.7266C282.224 54.6263 282.58 54.5762 282.958 54.5762C283.528 54.5762 284.027 54.6582 284.455 54.8223C284.888 54.9863 285.207 55.2096 285.412 55.4922C285.617 55.7702 285.758 56.1439 285.836 56.6133L284.633 56.7773C284.578 56.4036 284.419 56.112 284.154 55.9023C283.895 55.6927 283.525 55.5879 283.047 55.5879C282.482 55.5879 282.078 55.6813 281.837 55.8682C281.595 56.055 281.475 56.2738 281.475 56.5244C281.475 56.6839 281.525 56.8275 281.625 56.9551C281.725 57.0872 281.882 57.1966 282.097 57.2832C282.22 57.3288 282.582 57.4336 283.184 57.5977C284.054 57.8301 284.66 58.0215 285.002 58.1719C285.348 58.3177 285.619 58.5319 285.815 58.8145C286.011 59.097 286.109 59.4479 286.109 59.8672C286.109 60.2773 285.989 60.6647 285.747 61.0293C285.51 61.3893 285.166 61.6696 284.715 61.8701C284.264 62.0661 283.753 62.1641 283.184 62.1641C282.24 62.1641 281.52 61.9681 281.023 61.5762C280.531 61.1842 280.217 60.6032 280.08 59.833ZM290.259 60.8994L290.437 61.9863C290.09 62.0592 289.78 62.0957 289.507 62.0957C289.06 62.0957 288.714 62.0251 288.468 61.8838C288.222 61.7425 288.049 61.5579 287.948 61.3301C287.848 61.0977 287.798 60.6123 287.798 59.874V55.6973H286.896V54.7402H287.798V52.9424L289.021 52.2041V54.7402H290.259V55.6973H289.021V59.9424C289.021 60.2933 289.042 60.5189 289.083 60.6191C289.129 60.7194 289.199 60.7992 289.295 60.8584C289.395 60.9176 289.536 60.9473 289.719 60.9473C289.855 60.9473 290.035 60.9313 290.259 60.8994ZM296.206 61.1045C295.75 61.4919 295.311 61.7653 294.887 61.9248C294.467 62.0843 294.016 62.1641 293.533 62.1641C292.736 62.1641 292.123 61.9704 291.694 61.583C291.266 61.1911 291.052 60.6921 291.052 60.0859C291.052 59.7305 291.132 59.4069 291.291 59.1152C291.455 58.819 291.667 58.582 291.927 58.4043C292.191 58.2266 292.487 58.0921 292.815 58.001C293.057 57.9372 293.422 57.8757 293.909 57.8164C294.903 57.6979 295.634 57.5566 296.104 57.3926C296.108 57.224 296.11 57.1169 296.11 57.0713C296.11 56.57 295.994 56.2168 295.762 56.0117C295.447 55.7337 294.98 55.5947 294.36 55.5947C293.782 55.5947 293.353 55.6973 293.075 55.9023C292.802 56.1029 292.599 56.4606 292.467 56.9756L291.264 56.8115C291.373 56.2965 291.553 55.8818 291.804 55.5674C292.054 55.2484 292.417 55.0046 292.891 54.8359C293.365 54.6628 293.914 54.5762 294.538 54.5762C295.158 54.5762 295.661 54.6491 296.049 54.7949C296.436 54.9408 296.721 55.1253 296.903 55.3486C297.086 55.5674 297.213 55.8454 297.286 56.1826C297.327 56.3923 297.348 56.7705 297.348 57.3174V58.958C297.348 60.1019 297.373 60.8265 297.423 61.1318C297.478 61.4326 297.582 61.722 297.737 62H296.452C296.325 61.7448 296.243 61.4463 296.206 61.1045ZM296.104 58.3564C295.657 58.5387 294.987 58.6937 294.094 58.8213C293.588 58.8942 293.23 58.9762 293.021 59.0674C292.811 59.1585 292.649 59.293 292.535 59.4707C292.421 59.6439 292.364 59.8376 292.364 60.0518C292.364 60.3799 292.487 60.6533 292.733 60.8721C292.984 61.0908 293.349 61.2002 293.827 61.2002C294.301 61.2002 294.723 61.0977 295.092 60.8926C295.461 60.6829 295.732 60.3981 295.905 60.0381C296.037 59.7601 296.104 59.3499 296.104 58.8076V58.3564ZM299.269 53.3936V51.9785H300.499V53.3936H299.269ZM299.269 62V54.7402H300.499V62H299.269ZM302.379 62V54.7402H303.486V55.7725C304.02 54.9749 304.79 54.5762 305.797 54.5762C306.234 54.5762 306.635 54.6559 307 54.8154C307.369 54.9704 307.645 55.1755 307.827 55.4307C308.009 55.6859 308.137 55.9889 308.21 56.3398C308.256 56.5677 308.278 56.9665 308.278 57.5361V62H307.048V57.584C307.048 57.0827 307 56.709 306.904 56.4629C306.809 56.2122 306.638 56.014 306.392 55.8682C306.15 55.7178 305.865 55.6426 305.537 55.6426C305.013 55.6426 304.56 55.8089 304.177 56.1416C303.799 56.4743 303.609 57.1055 303.609 58.0352V62H302.379ZM314.909 61.1045C314.453 61.4919 314.014 61.7653 313.59 61.9248C313.171 62.0843 312.719 62.1641 312.236 62.1641C311.439 62.1641 310.826 61.9704 310.397 61.583C309.969 61.1911 309.755 60.6921 309.755 60.0859C309.755 59.7305 309.835 59.4069 309.994 59.1152C310.158 58.819 310.37 58.582 310.63 58.4043C310.894 58.2266 311.19 58.0921 311.519 58.001C311.76 57.9372 312.125 57.8757 312.612 57.8164C313.606 57.6979 314.337 57.5566 314.807 57.3926C314.811 57.224 314.813 57.1169 314.813 57.0713C314.813 56.57 314.697 56.2168 314.465 56.0117C314.15 55.7337 313.683 55.5947 313.063 55.5947C312.485 55.5947 312.056 55.6973 311.778 55.9023C311.505 56.1029 311.302 56.4606 311.17 56.9756L309.967 56.8115C310.076 56.2965 310.256 55.8818 310.507 55.5674C310.757 55.2484 311.12 55.0046 311.594 54.8359C312.068 54.6628 312.617 54.5762 313.241 54.5762C313.861 54.5762 314.365 54.6491 314.752 54.7949C315.139 54.9408 315.424 55.1253 315.606 55.3486C315.789 55.5674 315.916 55.8454 315.989 56.1826C316.03 56.3923 316.051 56.7705 316.051 57.3174V58.958C316.051 60.1019 316.076 60.8265 316.126 61.1318C316.181 61.4326 316.285 61.722 316.44 62H315.155C315.028 61.7448 314.946 61.4463 314.909 61.1045ZM314.807 58.3564C314.36 58.5387 313.69 58.6937 312.797 58.8213C312.291 58.8942 311.933 58.9762 311.724 59.0674C311.514 59.1585 311.352 59.293 311.238 59.4707C311.124 59.6439 311.067 59.8376 311.067 60.0518C311.067 60.3799 311.19 60.6533 311.437 60.8721C311.687 61.0908 312.052 61.2002 312.53 61.2002C313.004 61.2002 313.426 61.0977 313.795 60.8926C314.164 60.6829 314.435 60.3981 314.608 60.0381C314.741 59.7601 314.807 59.3499 314.807 58.8076V58.3564ZM319.1 62H317.958V51.9785H319.188V55.5537C319.708 54.902 320.371 54.5762 321.178 54.5762C321.624 54.5762 322.046 54.6673 322.442 54.8496C322.843 55.0273 323.172 55.2803 323.427 55.6084C323.687 55.932 323.889 56.3239 324.035 56.7842C324.181 57.2445 324.254 57.7367 324.254 58.2607C324.254 59.5049 323.946 60.4665 323.331 61.1455C322.716 61.8245 321.978 62.1641 321.116 62.1641C320.259 62.1641 319.587 61.8063 319.1 61.0908V62ZM319.086 58.3154C319.086 59.1859 319.204 59.8148 319.441 60.2021C319.829 60.8356 320.353 61.1523 321.014 61.1523C321.551 61.1523 322.016 60.9199 322.408 60.4551C322.8 59.9857 322.996 59.2884 322.996 58.3633C322.996 57.4154 322.807 56.7158 322.429 56.2646C322.055 55.8135 321.602 55.5879 321.068 55.5879C320.531 55.5879 320.066 55.8226 319.674 56.292C319.282 56.7568 319.086 57.4313 319.086 58.3154ZM325.765 53.3936V51.9785H326.995V53.3936H325.765ZM325.765 62V54.7402H326.995V62H325.765ZM328.848 62V51.9785H330.078V62H328.848ZM331.999 53.3936V51.9785H333.229V53.3936H331.999ZM331.999 62V54.7402H333.229V62H331.999ZM337.796 60.8994L337.974 61.9863C337.627 62.0592 337.317 62.0957 337.044 62.0957C336.597 62.0957 336.251 62.0251 336.005 61.8838C335.759 61.7425 335.586 61.5579 335.485 61.3301C335.385 61.0977 335.335 60.6123 335.335 59.874V55.6973H334.433V54.7402H335.335V52.9424L336.559 52.2041V54.7402H337.796V55.6973H336.559V59.9424C336.559 60.2933 336.579 60.5189 336.62 60.6191C336.666 60.7194 336.736 60.7992 336.832 60.8584C336.932 60.9176 337.074 60.9473 337.256 60.9473C337.393 60.9473 337.573 60.9313 337.796 60.8994ZM338.951 64.7959L338.814 63.6406C339.083 63.7135 339.318 63.75 339.519 63.75C339.792 63.75 340.011 63.7044 340.175 63.6133C340.339 63.5221 340.473 63.3945 340.578 63.2305C340.656 63.1074 340.781 62.8021 340.954 62.3145C340.977 62.2461 341.013 62.1458 341.063 62.0137L338.309 54.7402H339.635L341.146 58.9443C341.341 59.4775 341.517 60.0381 341.672 60.626C341.813 60.0609 341.982 59.5094 342.178 58.9717L343.729 54.7402H344.96L342.198 62.123C341.902 62.9206 341.672 63.4697 341.508 63.7705C341.289 64.1761 341.038 64.4723 340.756 64.6592C340.473 64.8506 340.136 64.9463 339.744 64.9463C339.507 64.9463 339.243 64.8962 338.951 64.7959ZM349.909 53.3936V51.9785H351.14V53.3936H349.909ZM349.909 62V54.7402H351.14V62H349.909ZM353.02 62V54.7402H354.127V55.7725C354.66 54.9749 355.43 54.5762 356.438 54.5762C356.875 54.5762 357.276 54.6559 357.641 54.8154C358.01 54.9704 358.285 55.1755 358.468 55.4307C358.65 55.6859 358.778 55.9889 358.851 56.3398C358.896 56.5677 358.919 56.9665 358.919 57.5361V62H357.688V57.584C357.688 57.0827 357.641 56.709 357.545 56.4629C357.449 56.2122 357.278 56.014 357.032 55.8682C356.791 55.7178 356.506 55.6426 356.178 55.6426C355.654 55.6426 355.2 55.8089 354.817 56.1416C354.439 56.4743 354.25 57.1055 354.25 58.0352V62H353.02ZM364.825 62V51.9785H366.821L369.193 59.0742C369.412 59.735 369.572 60.2295 369.672 60.5576C369.786 60.193 369.964 59.6576 370.205 58.9512L372.604 51.9785H374.389V62H373.11V53.6123L370.198 62H369.002L366.104 53.4688V62H364.825ZM381.108 61.1045C380.653 61.4919 380.213 61.7653 379.789 61.9248C379.37 62.0843 378.919 62.1641 378.436 62.1641C377.638 62.1641 377.025 61.9704 376.597 61.583C376.168 61.1911 375.954 60.6921 375.954 60.0859C375.954 59.7305 376.034 59.4069 376.193 59.1152C376.357 58.819 376.569 58.582 376.829 58.4043C377.093 58.2266 377.39 58.0921 377.718 58.001C377.959 57.9372 378.324 57.8757 378.812 57.8164C379.805 57.6979 380.536 57.5566 381.006 57.3926C381.01 57.224 381.013 57.1169 381.013 57.0713C381.013 56.57 380.896 56.2168 380.664 56.0117C380.35 55.7337 379.882 55.5947 379.263 55.5947C378.684 55.5947 378.256 55.6973 377.978 55.9023C377.704 56.1029 377.501 56.4606 377.369 56.9756L376.166 56.8115C376.275 56.2965 376.455 55.8818 376.706 55.5674C376.957 55.2484 377.319 55.0046 377.793 54.8359C378.267 54.6628 378.816 54.5762 379.44 54.5762C380.06 54.5762 380.564 54.6491 380.951 54.7949C381.339 54.9408 381.623 55.1253 381.806 55.3486C381.988 55.5674 382.116 55.8454 382.188 56.1826C382.229 56.3923 382.25 56.7705 382.25 57.3174V58.958C382.25 60.1019 382.275 60.8265 382.325 61.1318C382.38 61.4326 382.485 61.722 382.64 62H381.354C381.227 61.7448 381.145 61.4463 381.108 61.1045ZM381.006 58.3564C380.559 58.5387 379.889 58.6937 378.996 58.8213C378.49 58.8942 378.132 58.9762 377.923 59.0674C377.713 59.1585 377.551 59.293 377.438 59.4707C377.324 59.6439 377.267 59.8376 377.267 60.0518C377.267 60.3799 377.39 60.6533 377.636 60.8721C377.886 61.0908 378.251 61.2002 378.729 61.2002C379.203 61.2002 379.625 61.0977 379.994 60.8926C380.363 60.6829 380.634 60.3981 380.808 60.0381C380.94 59.7601 381.006 59.3499 381.006 58.8076V58.3564ZM384.164 62V54.7402H385.271V55.7725C385.805 54.9749 386.575 54.5762 387.582 54.5762C388.02 54.5762 388.421 54.6559 388.785 54.8154C389.154 54.9704 389.43 55.1755 389.612 55.4307C389.795 55.6859 389.922 55.9889 389.995 56.3398C390.041 56.5677 390.063 56.9665 390.063 57.5361V62H388.833V57.584C388.833 57.0827 388.785 56.709 388.689 56.4629C388.594 56.2122 388.423 56.014 388.177 55.8682C387.935 55.7178 387.65 55.6426 387.322 55.6426C386.798 55.6426 386.345 55.8089 385.962 56.1416C385.584 56.4743 385.395 57.1055 385.395 58.0352V62H384.164ZM396.715 62V60.9336C396.15 61.7539 395.382 62.1641 394.411 62.1641C393.983 62.1641 393.582 62.082 393.208 61.918C392.839 61.7539 392.563 61.5488 392.381 61.3027C392.203 61.0521 392.078 60.7467 392.005 60.3867C391.955 60.1452 391.93 59.7624 391.93 59.2383V54.7402H393.16V58.7666C393.16 59.4092 393.185 59.8421 393.235 60.0654C393.313 60.389 393.477 60.6442 393.728 60.8311C393.978 61.0133 394.288 61.1045 394.657 61.1045C395.026 61.1045 395.373 61.0111 395.696 60.8242C396.02 60.6328 396.248 60.3753 396.38 60.0518C396.517 59.7236 396.585 59.2497 396.585 58.6299V54.7402H397.815V62H396.715ZM400.044 62V55.6973H398.957V54.7402H400.044V53.9678C400.044 53.4801 400.087 53.1178 400.174 52.8809C400.292 52.5618 400.5 52.3044 400.796 52.1084C401.097 51.9079 401.516 51.8076 402.054 51.8076C402.4 51.8076 402.783 51.8486 403.202 51.9307L403.018 53.0039C402.762 52.9583 402.521 52.9355 402.293 52.9355C401.919 52.9355 401.655 53.0153 401.5 53.1748C401.345 53.3343 401.268 53.6328 401.268 54.0703V54.7402H402.683V55.6973H401.268V62H400.044ZM408.384 61.1045C407.928 61.4919 407.488 61.7653 407.064 61.9248C406.645 62.0843 406.194 62.1641 405.711 62.1641C404.913 62.1641 404.3 61.9704 403.872 61.583C403.444 61.1911 403.229 60.6921 403.229 60.0859C403.229 59.7305 403.309 59.4069 403.469 59.1152C403.633 58.819 403.845 58.582 404.104 58.4043C404.369 58.2266 404.665 58.0921 404.993 58.001C405.235 57.9372 405.599 57.8757 406.087 57.8164C407.08 57.6979 407.812 57.5566 408.281 57.3926C408.286 57.224 408.288 57.1169 408.288 57.0713C408.288 56.57 408.172 56.2168 407.939 56.0117C407.625 55.7337 407.158 55.5947 406.538 55.5947C405.959 55.5947 405.531 55.6973 405.253 55.9023C404.979 56.1029 404.777 56.4606 404.645 56.9756L403.441 56.8115C403.551 56.2965 403.731 55.8818 403.981 55.5674C404.232 55.2484 404.594 55.0046 405.068 54.8359C405.542 54.6628 406.091 54.5762 406.716 54.5762C407.336 54.5762 407.839 54.6491 408.227 54.7949C408.614 54.9408 408.899 55.1253 409.081 55.3486C409.263 55.5674 409.391 55.8454 409.464 56.1826C409.505 56.3923 409.525 56.7705 409.525 57.3174V58.958C409.525 60.1019 409.55 60.8265 409.601 61.1318C409.655 61.4326 409.76 61.722 409.915 62H408.63C408.502 61.7448 408.42 61.4463 408.384 61.1045ZM408.281 58.3564C407.835 58.5387 407.165 58.6937 406.271 58.8213C405.766 58.8942 405.408 58.9762 405.198 59.0674C404.989 59.1585 404.827 59.293 404.713 59.4707C404.599 59.6439 404.542 59.8376 404.542 60.0518C404.542 60.3799 404.665 60.6533 404.911 60.8721C405.162 61.0908 405.526 61.2002 406.005 61.2002C406.479 61.2002 406.9 61.0977 407.27 60.8926C407.639 60.6829 407.91 60.3981 408.083 60.0381C408.215 59.7601 408.281 59.3499 408.281 58.8076V58.3564ZM416.177 59.3408L417.387 59.498C417.255 60.332 416.915 60.986 416.368 61.46C415.826 61.9294 415.158 62.1641 414.365 62.1641C413.372 62.1641 412.572 61.8405 411.966 61.1934C411.364 60.5417 411.063 59.6097 411.063 58.3975C411.063 57.6136 411.193 56.9277 411.453 56.3398C411.713 55.752 412.107 55.3122 412.636 55.0205C413.169 54.7243 413.748 54.5762 414.372 54.5762C415.16 54.5762 415.805 54.7767 416.307 55.1777C416.808 55.5742 417.129 56.1393 417.271 56.873L416.074 57.0576C415.96 56.57 415.757 56.2031 415.466 55.957C415.179 55.7109 414.83 55.5879 414.42 55.5879C413.8 55.5879 413.297 55.8112 412.909 56.2578C412.522 56.6999 412.328 57.4017 412.328 58.3633C412.328 59.3385 412.515 60.0472 412.889 60.4893C413.262 60.9313 413.75 61.1523 414.352 61.1523C414.835 61.1523 415.238 61.0042 415.562 60.708C415.885 60.4118 416.09 59.9561 416.177 59.3408ZM421.126 60.8994L421.304 61.9863C420.957 62.0592 420.647 62.0957 420.374 62.0957C419.927 62.0957 419.581 62.0251 419.335 61.8838C419.089 61.7425 418.916 61.5579 418.815 61.3301C418.715 61.0977 418.665 60.6123 418.665 59.874V55.6973H417.763V54.7402H418.665V52.9424L419.889 52.2041V54.7402H421.126V55.6973H419.889V59.9424C419.889 60.2933 419.909 60.5189 419.95 60.6191C419.996 60.7194 420.066 60.7992 420.162 60.8584C420.262 60.9176 420.404 60.9473 420.586 60.9473C420.723 60.9473 420.903 60.9313 421.126 60.8994ZM427.094 62V60.9336C426.529 61.7539 425.761 62.1641 424.79 62.1641C424.362 62.1641 423.961 62.082 423.587 61.918C423.218 61.7539 422.942 61.5488 422.76 61.3027C422.582 61.0521 422.457 60.7467 422.384 60.3867C422.334 60.1452 422.309 59.7624 422.309 59.2383V54.7402H423.539V58.7666C423.539 59.4092 423.564 59.8421 423.614 60.0654C423.692 60.389 423.856 60.6442 424.106 60.8311C424.357 61.0133 424.667 61.1045 425.036 61.1045C425.405 61.1045 425.752 61.0111 426.075 60.8242C426.399 60.6328 426.627 60.3753 426.759 60.0518C426.896 59.7236 426.964 59.2497 426.964 58.6299V54.7402H428.194V62H427.094ZM430.115 62V54.7402H431.223V55.8408C431.505 55.3258 431.765 54.9863 432.002 54.8223C432.243 54.6582 432.508 54.5762 432.795 54.5762C433.21 54.5762 433.631 54.7083 434.06 54.9727L433.636 56.1143C433.335 55.9365 433.034 55.8477 432.733 55.8477C432.465 55.8477 432.223 55.9297 432.009 56.0938C431.795 56.2533 431.642 56.4766 431.551 56.7637C431.414 57.2012 431.346 57.6797 431.346 58.1992V62H430.115ZM434.798 53.3936V51.9785H436.028V53.3936H434.798ZM434.798 62V54.7402H436.028V62H434.798ZM437.908 62V54.7402H439.016V55.7725C439.549 54.9749 440.319 54.5762 441.326 54.5762C441.764 54.5762 442.165 54.6559 442.529 54.8154C442.898 54.9704 443.174 55.1755 443.356 55.4307C443.539 55.6859 443.666 55.9889 443.739 56.3398C443.785 56.5677 443.808 56.9665 443.808 57.5361V62H442.577V57.584C442.577 57.0827 442.529 56.709 442.434 56.4629C442.338 56.2122 442.167 56.014 441.921 55.8682C441.679 55.7178 441.395 55.6426 441.066 55.6426C440.542 55.6426 440.089 55.8089 439.706 56.1416C439.328 56.4743 439.139 57.1055 439.139 58.0352V62H437.908ZM445.476 62.6016L446.672 62.7793C446.722 63.1484 446.861 63.4173 447.089 63.5859C447.394 63.8138 447.811 63.9277 448.34 63.9277C448.91 63.9277 449.349 63.8138 449.659 63.5859C449.969 63.3581 450.179 63.0391 450.288 62.6289C450.352 62.3783 450.382 61.8519 450.377 61.0498C449.839 61.6833 449.169 62 448.367 62C447.369 62 446.597 61.64 446.05 60.9199C445.503 60.1999 445.229 59.3363 445.229 58.3291C445.229 57.6364 445.355 56.9984 445.605 56.415C445.856 55.8271 446.218 55.3737 446.692 55.0547C447.171 54.7357 447.731 54.5762 448.374 54.5762C449.231 54.5762 449.937 54.9225 450.493 55.6152V54.7402H451.628V61.0156C451.628 62.1458 451.512 62.9456 451.279 63.415C451.051 63.889 450.687 64.2627 450.186 64.5361C449.689 64.8096 449.076 64.9463 448.347 64.9463C447.481 64.9463 446.781 64.7503 446.248 64.3584C445.715 63.971 445.457 63.3854 445.476 62.6016ZM446.494 58.2402C446.494 59.1927 446.683 59.8877 447.062 60.3252C447.44 60.7627 447.914 60.9814 448.483 60.9814C449.049 60.9814 449.522 60.765 449.905 60.332C450.288 59.8945 450.479 59.2109 450.479 58.2812C450.479 57.3926 450.281 56.7227 449.885 56.2715C449.493 55.8203 449.019 55.5947 448.463 55.5947C447.916 55.5947 447.451 55.818 447.068 56.2646C446.686 56.7067 446.494 57.3652 446.494 58.2402Z"
        fill="#64748B" />
    <defs>
        <linearGradient id="paint0_linear_158_6" x1="5.85781" y1="-54.898" x2="82.8826" y2="-54.898"
            gradientUnits="userSpaceOnUse">
            <stop stop-color="#00D4AA" />
            <stop offset="1" stop-color="#00CCFF" />
        </linearGradient>
    </defs>
</svg>
